<mxfile host="app.diagrams.net" modified="2023-04-12T09:24:09.115Z" agent="Mozilla/5.0 (Windows NT 10.0; Win64; x64) AppleWebKit/537.36 (KHTML, like Gecko) Chrome/111.0.0.0 Safari/537.36" etag="u6p0tJ_GnQt906dmer1L" version="21.1.5" type="device">
  <diagram name="Страница 1" id="etkq9nmsjrVepEvGJYe1">
    <mxGraphModel dx="4982" dy="4214" grid="1" gridSize="10" guides="1" tooltips="1" connect="1" arrows="1" fold="1" page="1" pageScale="1" pageWidth="827" pageHeight="1169" background="none" math="0" shadow="0">
      <root>
        <mxCell id="0" />
        <mxCell id="1" parent="0" />
        <mxCell id="iAI7xGNEMs5AbcpsR_C5-301" value="Category" style="swimlane;fontStyle=0;childLayout=stackLayout;horizontal=1;startSize=26;fillColor=none;horizontalStack=0;resizeParent=1;resizeParentMax=0;resizeLast=0;collapsible=1;marginBottom=0;whiteSpace=wrap;html=1;" parent="1" vertex="1">
          <mxGeometry x="-2040" y="-1840" width="240" height="156" as="geometry" />
        </mxCell>
        <mxCell id="iAI7xGNEMs5AbcpsR_C5-302" value="id:&amp;nbsp;BigAutoField(PK)" style="text;strokeColor=none;fillColor=none;align=left;verticalAlign=top;spacingLeft=4;spacingRight=4;overflow=hidden;rotatable=0;points=[[0,0.5],[1,0.5]];portConstraint=eastwest;whiteSpace=wrap;html=1;" parent="iAI7xGNEMs5AbcpsR_C5-301" vertex="1">
          <mxGeometry y="26" width="240" height="26" as="geometry" />
        </mxCell>
        <mxCell id="iAI7xGNEMs5AbcpsR_C5-303" value="title: CharField" style="text;strokeColor=none;fillColor=none;align=left;verticalAlign=top;spacingLeft=4;spacingRight=4;overflow=hidden;rotatable=0;points=[[0,0.5],[1,0.5]];portConstraint=eastwest;whiteSpace=wrap;html=1;" parent="iAI7xGNEMs5AbcpsR_C5-301" vertex="1">
          <mxGeometry y="52" width="240" height="26" as="geometry" />
        </mxCell>
        <mxCell id="iAI7xGNEMs5AbcpsR_C5-304" value="description: CharField" style="text;strokeColor=none;fillColor=none;align=left;verticalAlign=top;spacingLeft=4;spacingRight=4;overflow=hidden;rotatable=0;points=[[0,0.5],[1,0.5]];portConstraint=eastwest;whiteSpace=wrap;html=1;" parent="iAI7xGNEMs5AbcpsR_C5-301" vertex="1">
          <mxGeometry y="78" width="240" height="26" as="geometry" />
        </mxCell>
        <mxCell id="iAI7xGNEMs5AbcpsR_C5-305" value="image: ImageField" style="text;strokeColor=none;fillColor=none;align=left;verticalAlign=top;spacingLeft=4;spacingRight=4;overflow=hidden;rotatable=0;points=[[0,0.5],[1,0.5]];portConstraint=eastwest;whiteSpace=wrap;html=1;" parent="iAI7xGNEMs5AbcpsR_C5-301" vertex="1">
          <mxGeometry y="104" width="240" height="26" as="geometry" />
        </mxCell>
        <mxCell id="iAI7xGNEMs5AbcpsR_C5-306" value="parent: ForeignKey(Category)" style="text;strokeColor=none;fillColor=none;align=left;verticalAlign=top;spacingLeft=4;spacingRight=4;overflow=hidden;rotatable=0;points=[[0,0.5],[1,0.5]];portConstraint=eastwest;whiteSpace=wrap;html=1;" parent="iAI7xGNEMs5AbcpsR_C5-301" vertex="1">
          <mxGeometry y="130" width="240" height="26" as="geometry" />
        </mxCell>
        <mxCell id="iAI7xGNEMs5AbcpsR_C5-307" value="Banner" style="swimlane;fontStyle=0;childLayout=stackLayout;horizontal=1;startSize=26;fillColor=none;horizontalStack=0;resizeParent=1;resizeParentMax=0;resizeLast=0;collapsible=1;marginBottom=0;whiteSpace=wrap;html=1;" parent="1" vertex="1">
          <mxGeometry x="-1720" y="-2084" width="240" height="104" as="geometry" />
        </mxCell>
        <mxCell id="iAI7xGNEMs5AbcpsR_C5-308" value="id:&amp;nbsp;BigAutoField(PK)" style="text;strokeColor=none;fillColor=none;align=left;verticalAlign=top;spacingLeft=4;spacingRight=4;overflow=hidden;rotatable=0;points=[[0,0.5],[1,0.5]];portConstraint=eastwest;whiteSpace=wrap;html=1;" parent="iAI7xGNEMs5AbcpsR_C5-307" vertex="1">
          <mxGeometry y="26" width="240" height="26" as="geometry" />
        </mxCell>
        <mxCell id="iAI7xGNEMs5AbcpsR_C5-309" value="title: CharField" style="text;strokeColor=none;fillColor=none;align=left;verticalAlign=top;spacingLeft=4;spacingRight=4;overflow=hidden;rotatable=0;points=[[0,0.5],[1,0.5]];portConstraint=eastwest;whiteSpace=wrap;html=1;" parent="iAI7xGNEMs5AbcpsR_C5-307" vertex="1">
          <mxGeometry y="52" width="240" height="26" as="geometry" />
        </mxCell>
        <mxCell id="iAI7xGNEMs5AbcpsR_C5-310" value="description: CharField" style="text;strokeColor=none;fillColor=none;align=left;verticalAlign=top;spacingLeft=4;spacingRight=4;overflow=hidden;rotatable=0;points=[[0,0.5],[1,0.5]];portConstraint=eastwest;whiteSpace=wrap;html=1;" parent="iAI7xGNEMs5AbcpsR_C5-307" vertex="1">
          <mxGeometry y="78" width="240" height="26" as="geometry" />
        </mxCell>
        <mxCell id="U01sUb85MiSTS4iVE3fx-2" style="edgeStyle=orthogonalEdgeStyle;rounded=0;orthogonalLoop=1;jettySize=auto;html=1;curved=1;" edge="1" parent="1" source="iAI7xGNEMs5AbcpsR_C5-318" target="iAI7xGNEMs5AbcpsR_C5-323">
          <mxGeometry relative="1" as="geometry" />
        </mxCell>
        <mxCell id="iAI7xGNEMs5AbcpsR_C5-318" value="User" style="swimlane;fontStyle=0;childLayout=stackLayout;horizontal=1;startSize=26;fillColor=none;horizontalStack=0;resizeParent=1;resizeParentMax=0;resizeLast=0;collapsible=1;marginBottom=0;whiteSpace=wrap;html=1;" parent="1" vertex="1">
          <mxGeometry x="-2240" y="-2720" width="240" height="78" as="geometry" />
        </mxCell>
        <mxCell id="iAI7xGNEMs5AbcpsR_C5-319" value="id:&amp;nbsp;BigAutoField(PK)" style="text;strokeColor=none;fillColor=none;align=left;verticalAlign=top;spacingLeft=4;spacingRight=4;overflow=hidden;rotatable=0;points=[[0,0.5],[1,0.5]];portConstraint=eastwest;whiteSpace=wrap;html=1;" parent="iAI7xGNEMs5AbcpsR_C5-318" vertex="1">
          <mxGeometry y="26" width="240" height="26" as="geometry" />
        </mxCell>
        <mxCell id="iAI7xGNEMs5AbcpsR_C5-321" value="balance:&amp;nbsp;DecimalField" style="text;strokeColor=none;fillColor=none;align=left;verticalAlign=top;spacingLeft=4;spacingRight=4;overflow=hidden;rotatable=0;points=[[0,0.5],[1,0.5]];portConstraint=eastwest;whiteSpace=wrap;html=1;" parent="iAI7xGNEMs5AbcpsR_C5-318" vertex="1">
          <mxGeometry y="52" width="240" height="26" as="geometry" />
        </mxCell>
        <mxCell id="iAI7xGNEMs5AbcpsR_C5-323" value="Shop" style="swimlane;fontStyle=0;childLayout=stackLayout;horizontal=1;startSize=26;fillColor=none;horizontalStack=0;resizeParent=1;resizeParentMax=0;resizeLast=0;collapsible=1;marginBottom=0;whiteSpace=wrap;html=1;" parent="1" vertex="1">
          <mxGeometry x="-2680" y="-2560" width="240" height="260" as="geometry" />
        </mxCell>
        <mxCell id="iAI7xGNEMs5AbcpsR_C5-324" value="id:&amp;nbsp;BigAutoField(PK)" style="text;strokeColor=none;fillColor=none;align=left;verticalAlign=top;spacingLeft=4;spacingRight=4;overflow=hidden;rotatable=0;points=[[0,0.5],[1,0.5]];portConstraint=eastwest;whiteSpace=wrap;html=1;" parent="iAI7xGNEMs5AbcpsR_C5-323" vertex="1">
          <mxGeometry y="26" width="240" height="26" as="geometry" />
        </mxCell>
        <mxCell id="iAI7xGNEMs5AbcpsR_C5-325" value="title: CharField" style="text;strokeColor=none;fillColor=none;align=left;verticalAlign=top;spacingLeft=4;spacingRight=4;overflow=hidden;rotatable=0;points=[[0,0.5],[1,0.5]];portConstraint=eastwest;whiteSpace=wrap;html=1;" parent="iAI7xGNEMs5AbcpsR_C5-323" vertex="1">
          <mxGeometry y="52" width="240" height="26" as="geometry" />
        </mxCell>
        <mxCell id="iAI7xGNEMs5AbcpsR_C5-326" value="description: CharField" style="text;strokeColor=none;fillColor=none;align=left;verticalAlign=top;spacingLeft=4;spacingRight=4;overflow=hidden;rotatable=0;points=[[0,0.5],[1,0.5]];portConstraint=eastwest;whiteSpace=wrap;html=1;" parent="iAI7xGNEMs5AbcpsR_C5-323" vertex="1">
          <mxGeometry y="78" width="240" height="26" as="geometry" />
        </mxCell>
        <mxCell id="iAI7xGNEMs5AbcpsR_C5-327" value="created:&amp;nbsp;DateTimeField(auto)" style="text;strokeColor=none;fillColor=none;align=left;verticalAlign=top;spacingLeft=4;spacingRight=4;overflow=hidden;rotatable=0;points=[[0,0.5],[1,0.5]];portConstraint=eastwest;whiteSpace=wrap;html=1;" parent="iAI7xGNEMs5AbcpsR_C5-323" vertex="1">
          <mxGeometry y="104" width="240" height="26" as="geometry" />
        </mxCell>
        <mxCell id="iAI7xGNEMs5AbcpsR_C5-328" value="updated:&amp;nbsp;DateTimeField(auto)" style="text;strokeColor=none;fillColor=none;align=left;verticalAlign=top;spacingLeft=4;spacingRight=4;overflow=hidden;rotatable=0;points=[[0,0.5],[1,0.5]];portConstraint=eastwest;whiteSpace=wrap;html=1;" parent="iAI7xGNEMs5AbcpsR_C5-323" vertex="1">
          <mxGeometry y="130" width="240" height="26" as="geometry" />
        </mxCell>
        <mxCell id="iAI7xGNEMs5AbcpsR_C5-329" value="address: CharField" style="text;strokeColor=none;fillColor=none;align=left;verticalAlign=top;spacingLeft=4;spacingRight=4;overflow=hidden;rotatable=0;points=[[0,0.5],[1,0.5]];portConstraint=eastwest;whiteSpace=wrap;html=1;" parent="iAI7xGNEMs5AbcpsR_C5-323" vertex="1">
          <mxGeometry y="156" width="240" height="26" as="geometry" />
        </mxCell>
        <mxCell id="iAI7xGNEMs5AbcpsR_C5-330" value="phone: CharField" style="text;strokeColor=none;fillColor=none;align=left;verticalAlign=top;spacingLeft=4;spacingRight=4;overflow=hidden;rotatable=0;points=[[0,0.5],[1,0.5]];portConstraint=eastwest;whiteSpace=wrap;html=1;" parent="iAI7xGNEMs5AbcpsR_C5-323" vertex="1">
          <mxGeometry y="182" width="240" height="26" as="geometry" />
        </mxCell>
        <mxCell id="iAI7xGNEMs5AbcpsR_C5-331" value="products: ManyToManyField(Product)" style="text;strokeColor=none;fillColor=none;align=left;verticalAlign=top;spacingLeft=4;spacingRight=4;overflow=hidden;rotatable=0;points=[[0,0.5],[1,0.5]];portConstraint=eastwest;whiteSpace=wrap;html=1;" parent="iAI7xGNEMs5AbcpsR_C5-323" vertex="1">
          <mxGeometry y="208" width="240" height="26" as="geometry" />
        </mxCell>
        <mxCell id="U01sUb85MiSTS4iVE3fx-5" value="user: ForeignKey(User)" style="text;strokeColor=none;fillColor=none;align=left;verticalAlign=top;spacingLeft=4;spacingRight=4;overflow=hidden;rotatable=0;points=[[0,0.5],[1,0.5]];portConstraint=eastwest;whiteSpace=wrap;html=1;" vertex="1" parent="iAI7xGNEMs5AbcpsR_C5-323">
          <mxGeometry y="234" width="240" height="26" as="geometry" />
        </mxCell>
        <mxCell id="u7lM2KXQP_NcvlQFw7vr-62" style="edgeStyle=orthogonalEdgeStyle;rounded=0;orthogonalLoop=1;jettySize=auto;html=1;entryX=0.008;entryY=0.769;entryDx=0;entryDy=0;curved=1;entryPerimeter=0;" parent="1" source="iAI7xGNEMs5AbcpsR_C5-332" target="iAI7xGNEMs5AbcpsR_C5-340" edge="1">
          <mxGeometry relative="1" as="geometry" />
        </mxCell>
        <mxCell id="u7lM2KXQP_NcvlQFw7vr-63" value="" style="edgeStyle=orthogonalEdgeStyle;rounded=0;orthogonalLoop=1;jettySize=auto;html=1;curved=1;entryX=0.221;entryY=0.962;entryDx=0;entryDy=0;entryPerimeter=0;" parent="1" source="iAI7xGNEMs5AbcpsR_C5-332" target="U01sUb85MiSTS4iVE3fx-5" edge="1">
          <mxGeometry relative="1" as="geometry">
            <mxPoint x="-2630" y="-2290" as="targetPoint" />
            <Array as="points">
              <mxPoint x="-2560" y="-2270" />
              <mxPoint x="-2620" y="-2270" />
              <mxPoint x="-2620" y="-2301" />
            </Array>
          </mxGeometry>
        </mxCell>
        <mxCell id="iAI7xGNEMs5AbcpsR_C5-332" value="Offer" style="swimlane;fontStyle=0;childLayout=stackLayout;horizontal=1;startSize=26;fillColor=none;horizontalStack=0;resizeParent=1;resizeParentMax=0;resizeLast=0;collapsible=1;marginBottom=0;whiteSpace=wrap;html=1;" parent="1" vertex="1">
          <mxGeometry x="-2680" y="-2240" width="240" height="156" as="geometry" />
        </mxCell>
        <mxCell id="iAI7xGNEMs5AbcpsR_C5-333" value="id:&amp;nbsp;BigAutoField(PK)" style="text;strokeColor=none;fillColor=none;align=left;verticalAlign=top;spacingLeft=4;spacingRight=4;overflow=hidden;rotatable=0;points=[[0,0.5],[1,0.5]];portConstraint=eastwest;whiteSpace=wrap;html=1;" parent="iAI7xGNEMs5AbcpsR_C5-332" vertex="1">
          <mxGeometry y="26" width="240" height="26" as="geometry" />
        </mxCell>
        <mxCell id="iAI7xGNEMs5AbcpsR_C5-334" value="shop: ForeignKey(Shop)" style="text;strokeColor=none;fillColor=none;align=left;verticalAlign=top;spacingLeft=4;spacingRight=4;overflow=hidden;rotatable=0;points=[[0,0.5],[1,0.5]];portConstraint=eastwest;whiteSpace=wrap;html=1;" parent="iAI7xGNEMs5AbcpsR_C5-332" vertex="1">
          <mxGeometry y="52" width="240" height="26" as="geometry" />
        </mxCell>
        <mxCell id="iAI7xGNEMs5AbcpsR_C5-335" value="product: ForeignKey(Product)" style="text;strokeColor=none;fillColor=none;align=left;verticalAlign=top;spacingLeft=4;spacingRight=4;overflow=hidden;rotatable=0;points=[[0,0.5],[1,0.5]];portConstraint=eastwest;whiteSpace=wrap;html=1;" parent="iAI7xGNEMs5AbcpsR_C5-332" vertex="1">
          <mxGeometry y="78" width="240" height="26" as="geometry" />
        </mxCell>
        <mxCell id="iAI7xGNEMs5AbcpsR_C5-336" value="price: DecimalField" style="text;strokeColor=none;fillColor=none;align=left;verticalAlign=top;spacingLeft=4;spacingRight=4;overflow=hidden;rotatable=0;points=[[0,0.5],[1,0.5]];portConstraint=eastwest;whiteSpace=wrap;html=1;" parent="iAI7xGNEMs5AbcpsR_C5-332" vertex="1">
          <mxGeometry y="104" width="240" height="26" as="geometry" />
        </mxCell>
        <mxCell id="iAI7xGNEMs5AbcpsR_C5-412" value="in_stock: IntegerField" style="text;strokeColor=none;fillColor=none;align=left;verticalAlign=top;spacingLeft=4;spacingRight=4;overflow=hidden;rotatable=0;points=[[0,0.5],[1,0.5]];portConstraint=eastwest;whiteSpace=wrap;html=1;" parent="iAI7xGNEMs5AbcpsR_C5-332" vertex="1">
          <mxGeometry y="130" width="240" height="26" as="geometry" />
        </mxCell>
        <mxCell id="u7lM2KXQP_NcvlQFw7vr-58" style="edgeStyle=orthogonalEdgeStyle;rounded=0;orthogonalLoop=1;jettySize=auto;html=1;curved=1;" parent="1" source="iAI7xGNEMs5AbcpsR_C5-337" target="iAI7xGNEMs5AbcpsR_C5-301" edge="1">
          <mxGeometry relative="1" as="geometry" />
        </mxCell>
        <mxCell id="iAI7xGNEMs5AbcpsR_C5-337" value="Product" style="swimlane;fontStyle=0;childLayout=stackLayout;horizontal=1;startSize=26;fillColor=none;horizontalStack=0;resizeParent=1;resizeParentMax=0;resizeLast=0;collapsible=1;marginBottom=0;whiteSpace=wrap;html=1;" parent="1" vertex="1">
          <mxGeometry x="-2200" y="-2220" width="240" height="208" as="geometry" />
        </mxCell>
        <mxCell id="iAI7xGNEMs5AbcpsR_C5-338" value="id:&amp;nbsp;BigAutoField(PK)" style="text;strokeColor=none;fillColor=none;align=left;verticalAlign=top;spacingLeft=4;spacingRight=4;overflow=hidden;rotatable=0;points=[[0,0.5],[1,0.5]];portConstraint=eastwest;whiteSpace=wrap;html=1;" parent="iAI7xGNEMs5AbcpsR_C5-337" vertex="1">
          <mxGeometry y="26" width="240" height="26" as="geometry" />
        </mxCell>
        <mxCell id="iAI7xGNEMs5AbcpsR_C5-339" value="title: CharField" style="text;strokeColor=none;fillColor=none;align=left;verticalAlign=top;spacingLeft=4;spacingRight=4;overflow=hidden;rotatable=0;points=[[0,0.5],[1,0.5]];portConstraint=eastwest;whiteSpace=wrap;html=1;" parent="iAI7xGNEMs5AbcpsR_C5-337" vertex="1">
          <mxGeometry y="52" width="240" height="26" as="geometry" />
        </mxCell>
        <mxCell id="iAI7xGNEMs5AbcpsR_C5-340" value="description: CharField" style="text;strokeColor=none;fillColor=none;align=left;verticalAlign=top;spacingLeft=4;spacingRight=4;overflow=hidden;rotatable=0;points=[[0,0.5],[1,0.5]];portConstraint=eastwest;whiteSpace=wrap;html=1;" parent="iAI7xGNEMs5AbcpsR_C5-337" vertex="1">
          <mxGeometry y="78" width="240" height="26" as="geometry" />
        </mxCell>
        <mxCell id="iAI7xGNEMs5AbcpsR_C5-341" value="created:&amp;nbsp;DateTimeField(auto)" style="text;strokeColor=none;fillColor=none;align=left;verticalAlign=top;spacingLeft=4;spacingRight=4;overflow=hidden;rotatable=0;points=[[0,0.5],[1,0.5]];portConstraint=eastwest;whiteSpace=wrap;html=1;" parent="iAI7xGNEMs5AbcpsR_C5-337" vertex="1">
          <mxGeometry y="104" width="240" height="26" as="geometry" />
        </mxCell>
        <mxCell id="iAI7xGNEMs5AbcpsR_C5-342" value="updated:&amp;nbsp;DateTimeField(auto)" style="text;strokeColor=none;fillColor=none;align=left;verticalAlign=top;spacingLeft=4;spacingRight=4;overflow=hidden;rotatable=0;points=[[0,0.5],[1,0.5]];portConstraint=eastwest;whiteSpace=wrap;html=1;" parent="iAI7xGNEMs5AbcpsR_C5-337" vertex="1">
          <mxGeometry y="130" width="240" height="26" as="geometry" />
        </mxCell>
        <mxCell id="iAI7xGNEMs5AbcpsR_C5-345" value="category: ForeignKeyField(Category)" style="text;strokeColor=none;fillColor=none;align=left;verticalAlign=top;spacingLeft=4;spacingRight=4;overflow=hidden;rotatable=0;points=[[0,0.5],[1,0.5]];portConstraint=eastwest;whiteSpace=wrap;html=1;" parent="iAI7xGNEMs5AbcpsR_C5-337" vertex="1">
          <mxGeometry y="156" width="240" height="26" as="geometry" />
        </mxCell>
        <mxCell id="iAI7xGNEMs5AbcpsR_C5-346" value="property: ManyToManyField(Property)" style="text;strokeColor=none;fillColor=none;align=left;verticalAlign=top;spacingLeft=4;spacingRight=4;overflow=hidden;rotatable=0;points=[[0,0.5],[1,0.5]];portConstraint=eastwest;whiteSpace=wrap;html=1;" parent="iAI7xGNEMs5AbcpsR_C5-337" vertex="1">
          <mxGeometry y="182" width="240" height="26" as="geometry" />
        </mxCell>
        <mxCell id="iAI7xGNEMs5AbcpsR_C5-347" value="Property" style="swimlane;fontStyle=0;childLayout=stackLayout;horizontal=1;startSize=26;fillColor=none;horizontalStack=0;resizeParent=1;resizeParentMax=0;resizeLast=0;collapsible=1;marginBottom=0;whiteSpace=wrap;html=1;" parent="1" vertex="1">
          <mxGeometry x="-2680" y="-2000" width="240" height="78" as="geometry" />
        </mxCell>
        <mxCell id="iAI7xGNEMs5AbcpsR_C5-348" value="id:&amp;nbsp;BigAutoField(PK)" style="text;strokeColor=none;fillColor=none;align=left;verticalAlign=top;spacingLeft=4;spacingRight=4;overflow=hidden;rotatable=0;points=[[0,0.5],[1,0.5]];portConstraint=eastwest;whiteSpace=wrap;html=1;" parent="iAI7xGNEMs5AbcpsR_C5-347" vertex="1">
          <mxGeometry y="26" width="240" height="26" as="geometry" />
        </mxCell>
        <mxCell id="iAI7xGNEMs5AbcpsR_C5-351" value="title: CharField" style="text;strokeColor=none;fillColor=none;align=left;verticalAlign=top;spacingLeft=4;spacingRight=4;overflow=hidden;rotatable=0;points=[[0,0.5],[1,0.5]];portConstraint=eastwest;whiteSpace=wrap;html=1;" parent="iAI7xGNEMs5AbcpsR_C5-347" vertex="1">
          <mxGeometry y="52" width="240" height="26" as="geometry" />
        </mxCell>
        <mxCell id="u7lM2KXQP_NcvlQFw7vr-60" value="" style="edgeStyle=orthogonalEdgeStyle;rounded=0;orthogonalLoop=1;jettySize=auto;html=1;curved=1;entryX=0.338;entryY=1;entryDx=0;entryDy=0;entryPerimeter=0;" parent="1" source="iAI7xGNEMs5AbcpsR_C5-352" target="iAI7xGNEMs5AbcpsR_C5-351" edge="1">
          <mxGeometry relative="1" as="geometry">
            <mxPoint x="-2600" y="-1910" as="targetPoint" />
          </mxGeometry>
        </mxCell>
        <mxCell id="u7lM2KXQP_NcvlQFw7vr-61" style="edgeStyle=orthogonalEdgeStyle;rounded=0;orthogonalLoop=1;jettySize=auto;html=1;entryX=0;entryY=0.5;entryDx=0;entryDy=0;curved=1;exitX=0.75;exitY=0;exitDx=0;exitDy=0;" parent="1" source="iAI7xGNEMs5AbcpsR_C5-352" target="iAI7xGNEMs5AbcpsR_C5-346" edge="1">
          <mxGeometry relative="1" as="geometry">
            <mxPoint x="-2210" y="-2080" as="targetPoint" />
            <mxPoint x="-2490" y="-1860" as="sourcePoint" />
            <Array as="points">
              <mxPoint x="-2500" y="-1860" />
              <mxPoint x="-2340" y="-1860" />
              <mxPoint x="-2340" y="-2025" />
            </Array>
          </mxGeometry>
        </mxCell>
        <mxCell id="iAI7xGNEMs5AbcpsR_C5-352" value="ProductProperty" style="swimlane;fontStyle=0;childLayout=stackLayout;horizontal=1;startSize=26;fillColor=none;horizontalStack=0;resizeParent=1;resizeParentMax=0;resizeLast=0;collapsible=1;marginBottom=0;whiteSpace=wrap;html=1;" parent="1" vertex="1">
          <mxGeometry x="-2680" y="-1840" width="240" height="130" as="geometry" />
        </mxCell>
        <mxCell id="iAI7xGNEMs5AbcpsR_C5-353" value="id:&amp;nbsp;BigAutoField(PK)" style="text;strokeColor=none;fillColor=none;align=left;verticalAlign=top;spacingLeft=4;spacingRight=4;overflow=hidden;rotatable=0;points=[[0,0.5],[1,0.5]];portConstraint=eastwest;whiteSpace=wrap;html=1;" parent="iAI7xGNEMs5AbcpsR_C5-352" vertex="1">
          <mxGeometry y="26" width="240" height="26" as="geometry" />
        </mxCell>
        <mxCell id="iAI7xGNEMs5AbcpsR_C5-354" value="product: ForeignKey(Product)" style="text;strokeColor=none;fillColor=none;align=left;verticalAlign=top;spacingLeft=4;spacingRight=4;overflow=hidden;rotatable=0;points=[[0,0.5],[1,0.5]];portConstraint=eastwest;whiteSpace=wrap;html=1;" parent="iAI7xGNEMs5AbcpsR_C5-352" vertex="1">
          <mxGeometry y="52" width="240" height="26" as="geometry" />
        </mxCell>
        <mxCell id="iAI7xGNEMs5AbcpsR_C5-355" value="property: ForeignKey(Property)" style="text;strokeColor=none;fillColor=none;align=left;verticalAlign=top;spacingLeft=4;spacingRight=4;overflow=hidden;rotatable=0;points=[[0,0.5],[1,0.5]];portConstraint=eastwest;whiteSpace=wrap;html=1;" parent="iAI7xGNEMs5AbcpsR_C5-352" vertex="1">
          <mxGeometry y="78" width="240" height="26" as="geometry" />
        </mxCell>
        <mxCell id="iAI7xGNEMs5AbcpsR_C5-356" value="value: CharField" style="text;strokeColor=none;fillColor=none;align=left;verticalAlign=top;spacingLeft=4;spacingRight=4;overflow=hidden;rotatable=0;points=[[0,0.5],[1,0.5]];portConstraint=eastwest;whiteSpace=wrap;html=1;" parent="iAI7xGNEMs5AbcpsR_C5-352" vertex="1">
          <mxGeometry y="104" width="240" height="26" as="geometry" />
        </mxCell>
        <mxCell id="u7lM2KXQP_NcvlQFw7vr-55" style="edgeStyle=orthogonalEdgeStyle;rounded=0;orthogonalLoop=1;jettySize=auto;html=1;curved=1;exitX=0;exitY=0.5;exitDx=0;exitDy=0;entryX=0.996;entryY=0.769;entryDx=0;entryDy=0;entryPerimeter=0;" parent="1" source="iAI7xGNEMs5AbcpsR_C5-360" target="iAI7xGNEMs5AbcpsR_C5-340" edge="1">
          <mxGeometry relative="1" as="geometry">
            <mxPoint x="-1960" y="-2160" as="targetPoint" />
            <Array as="points">
              <mxPoint x="-1800" y="-2209" />
              <mxPoint x="-1800" y="-2130" />
            </Array>
          </mxGeometry>
        </mxCell>
        <mxCell id="iAI7xGNEMs5AbcpsR_C5-357" value="Feedback" style="swimlane;fontStyle=0;childLayout=stackLayout;horizontal=1;startSize=26;fillColor=none;horizontalStack=0;resizeParent=1;resizeParentMax=0;resizeLast=0;collapsible=1;marginBottom=0;whiteSpace=wrap;html=1;" parent="1" vertex="1">
          <mxGeometry x="-1720" y="-2320" width="240" height="182" as="geometry" />
        </mxCell>
        <mxCell id="iAI7xGNEMs5AbcpsR_C5-358" value="id:&amp;nbsp;BigAutoField(PK)" style="text;strokeColor=none;fillColor=none;align=left;verticalAlign=top;spacingLeft=4;spacingRight=4;overflow=hidden;rotatable=0;points=[[0,0.5],[1,0.5]];portConstraint=eastwest;whiteSpace=wrap;html=1;" parent="iAI7xGNEMs5AbcpsR_C5-357" vertex="1">
          <mxGeometry y="26" width="240" height="26" as="geometry" />
        </mxCell>
        <mxCell id="iAI7xGNEMs5AbcpsR_C5-359" value="product: ForeignKey(Product)" style="text;strokeColor=none;fillColor=none;align=left;verticalAlign=top;spacingLeft=4;spacingRight=4;overflow=hidden;rotatable=0;points=[[0,0.5],[1,0.5]];portConstraint=eastwest;whiteSpace=wrap;html=1;" parent="iAI7xGNEMs5AbcpsR_C5-357" vertex="1">
          <mxGeometry y="52" width="240" height="26" as="geometry" />
        </mxCell>
        <mxCell id="iAI7xGNEMs5AbcpsR_C5-360" value="created:&amp;nbsp;DateTimeField(auto)" style="text;strokeColor=none;fillColor=none;align=left;verticalAlign=top;spacingLeft=4;spacingRight=4;overflow=hidden;rotatable=0;points=[[0,0.5],[1,0.5]];portConstraint=eastwest;whiteSpace=wrap;html=1;" parent="iAI7xGNEMs5AbcpsR_C5-357" vertex="1">
          <mxGeometry y="78" width="240" height="26" as="geometry" />
        </mxCell>
        <mxCell id="iAI7xGNEMs5AbcpsR_C5-362" value="updated:&amp;nbsp;DateTimeField(auto)" style="text;strokeColor=none;fillColor=none;align=left;verticalAlign=top;spacingLeft=4;spacingRight=4;overflow=hidden;rotatable=0;points=[[0,0.5],[1,0.5]];portConstraint=eastwest;whiteSpace=wrap;html=1;" parent="iAI7xGNEMs5AbcpsR_C5-357" vertex="1">
          <mxGeometry y="104" width="240" height="26" as="geometry" />
        </mxCell>
        <mxCell id="iAI7xGNEMs5AbcpsR_C5-370" value="text: CharField" style="text;strokeColor=none;fillColor=none;align=left;verticalAlign=top;spacingLeft=4;spacingRight=4;overflow=hidden;rotatable=0;points=[[0,0.5],[1,0.5]];portConstraint=eastwest;whiteSpace=wrap;html=1;" parent="iAI7xGNEMs5AbcpsR_C5-357" vertex="1">
          <mxGeometry y="130" width="240" height="26" as="geometry" />
        </mxCell>
        <mxCell id="iAI7xGNEMs5AbcpsR_C5-371" value="rating: SmallIntegerField" style="text;strokeColor=none;fillColor=none;align=left;verticalAlign=top;spacingLeft=4;spacingRight=4;overflow=hidden;rotatable=0;points=[[0,0.5],[1,0.5]];portConstraint=eastwest;whiteSpace=wrap;html=1;" parent="iAI7xGNEMs5AbcpsR_C5-357" vertex="1">
          <mxGeometry y="156" width="240" height="26" as="geometry" />
        </mxCell>
        <mxCell id="u7lM2KXQP_NcvlQFw7vr-59" style="edgeStyle=orthogonalEdgeStyle;rounded=0;orthogonalLoop=1;jettySize=auto;html=1;entryX=0.263;entryY=1.038;entryDx=0;entryDy=0;entryPerimeter=0;curved=1;" parent="1" source="iAI7xGNEMs5AbcpsR_C5-365" target="iAI7xGNEMs5AbcpsR_C5-346" edge="1">
          <mxGeometry relative="1" as="geometry">
            <mxPoint x="-2200" y="-1900" as="targetPoint" />
          </mxGeometry>
        </mxCell>
        <mxCell id="iAI7xGNEMs5AbcpsR_C5-365" value="ProductImage" style="swimlane;fontStyle=0;childLayout=stackLayout;horizontal=1;startSize=26;fillColor=none;horizontalStack=0;resizeParent=1;resizeParentMax=0;resizeLast=0;collapsible=1;marginBottom=0;whiteSpace=wrap;html=1;" parent="1" vertex="1">
          <mxGeometry x="-2360" y="-1840" width="240" height="130" as="geometry" />
        </mxCell>
        <mxCell id="iAI7xGNEMs5AbcpsR_C5-366" value="id:&amp;nbsp;BigAutoField(PK)" style="text;strokeColor=none;fillColor=none;align=left;verticalAlign=top;spacingLeft=4;spacingRight=4;overflow=hidden;rotatable=0;points=[[0,0.5],[1,0.5]];portConstraint=eastwest;whiteSpace=wrap;html=1;" parent="iAI7xGNEMs5AbcpsR_C5-365" vertex="1">
          <mxGeometry y="26" width="240" height="26" as="geometry" />
        </mxCell>
        <mxCell id="iAI7xGNEMs5AbcpsR_C5-367" value="product: ForeignKey(Product)" style="text;strokeColor=none;fillColor=none;align=left;verticalAlign=top;spacingLeft=4;spacingRight=4;overflow=hidden;rotatable=0;points=[[0,0.5],[1,0.5]];portConstraint=eastwest;whiteSpace=wrap;html=1;" parent="iAI7xGNEMs5AbcpsR_C5-365" vertex="1">
          <mxGeometry y="52" width="240" height="26" as="geometry" />
        </mxCell>
        <mxCell id="iAI7xGNEMs5AbcpsR_C5-368" value="image: ImageField" style="text;strokeColor=none;fillColor=none;align=left;verticalAlign=top;spacingLeft=4;spacingRight=4;overflow=hidden;rotatable=0;points=[[0,0.5],[1,0.5]];portConstraint=eastwest;whiteSpace=wrap;html=1;" parent="iAI7xGNEMs5AbcpsR_C5-365" vertex="1">
          <mxGeometry y="78" width="240" height="26" as="geometry" />
        </mxCell>
        <mxCell id="iAI7xGNEMs5AbcpsR_C5-369" value="description: CharField" style="text;strokeColor=none;fillColor=none;align=left;verticalAlign=top;spacingLeft=4;spacingRight=4;overflow=hidden;rotatable=0;points=[[0,0.5],[1,0.5]];portConstraint=eastwest;whiteSpace=wrap;html=1;" parent="iAI7xGNEMs5AbcpsR_C5-365" vertex="1">
          <mxGeometry y="104" width="240" height="26" as="geometry" />
        </mxCell>
        <mxCell id="u7lM2KXQP_NcvlQFw7vr-41" value="" style="edgeStyle=orthogonalEdgeStyle;rounded=0;orthogonalLoop=1;jettySize=auto;html=1;curved=1;entryX=0.563;entryY=1;entryDx=0;entryDy=0;entryPerimeter=0;exitX=0.342;exitY=0;exitDx=0;exitDy=0;exitPerimeter=0;" parent="1" source="iAI7xGNEMs5AbcpsR_C5-379" target="iAI7xGNEMs5AbcpsR_C5-321" edge="1">
          <mxGeometry relative="1" as="geometry">
            <mxPoint x="-2340" y="-2760" as="targetPoint" />
          </mxGeometry>
        </mxCell>
        <mxCell id="iAI7xGNEMs5AbcpsR_C5-379" value="Order" style="swimlane;fontStyle=0;childLayout=stackLayout;horizontal=1;startSize=26;fillColor=none;horizontalStack=0;resizeParent=1;resizeParentMax=0;resizeLast=0;collapsible=1;marginBottom=0;whiteSpace=wrap;html=1;" parent="1" vertex="1">
          <mxGeometry x="-2040" y="-2560" width="240" height="234" as="geometry" />
        </mxCell>
        <mxCell id="iAI7xGNEMs5AbcpsR_C5-380" value="id:&amp;nbsp;BigAutoField(PK)" style="text;strokeColor=none;fillColor=none;align=left;verticalAlign=top;spacingLeft=4;spacingRight=4;overflow=hidden;rotatable=0;points=[[0,0.5],[1,0.5]];portConstraint=eastwest;whiteSpace=wrap;html=1;" parent="iAI7xGNEMs5AbcpsR_C5-379" vertex="1">
          <mxGeometry y="26" width="240" height="26" as="geometry" />
        </mxCell>
        <mxCell id="iAI7xGNEMs5AbcpsR_C5-381" value="user: ForeignKey(UserProfile)" style="text;strokeColor=none;fillColor=none;align=left;verticalAlign=top;spacingLeft=4;spacingRight=4;overflow=hidden;rotatable=0;points=[[0,0.5],[1,0.5]];portConstraint=eastwest;whiteSpace=wrap;html=1;" parent="iAI7xGNEMs5AbcpsR_C5-379" vertex="1">
          <mxGeometry y="52" width="240" height="26" as="geometry" />
        </mxCell>
        <mxCell id="iAI7xGNEMs5AbcpsR_C5-386" value="product: ManyToManyField(Product)" style="text;strokeColor=none;fillColor=none;align=left;verticalAlign=top;spacingLeft=4;spacingRight=4;overflow=hidden;rotatable=0;points=[[0,0.5],[1,0.5]];portConstraint=eastwest;whiteSpace=wrap;html=1;" parent="iAI7xGNEMs5AbcpsR_C5-379" vertex="1">
          <mxGeometry y="78" width="240" height="26" as="geometry" />
        </mxCell>
        <mxCell id="iAI7xGNEMs5AbcpsR_C5-387" value="status: CharField" style="text;strokeColor=none;fillColor=none;align=left;verticalAlign=top;spacingLeft=4;spacingRight=4;overflow=hidden;rotatable=0;points=[[0,0.5],[1,0.5]];portConstraint=eastwest;whiteSpace=wrap;html=1;" parent="iAI7xGNEMs5AbcpsR_C5-379" vertex="1">
          <mxGeometry y="104" width="240" height="26" as="geometry" />
        </mxCell>
        <mxCell id="iAI7xGNEMs5AbcpsR_C5-382" value="created:&amp;nbsp;DateTimeField(auto)" style="text;strokeColor=none;fillColor=none;align=left;verticalAlign=top;spacingLeft=4;spacingRight=4;overflow=hidden;rotatable=0;points=[[0,0.5],[1,0.5]];portConstraint=eastwest;whiteSpace=wrap;html=1;" parent="iAI7xGNEMs5AbcpsR_C5-379" vertex="1">
          <mxGeometry y="130" width="240" height="26" as="geometry" />
        </mxCell>
        <mxCell id="iAI7xGNEMs5AbcpsR_C5-383" value="updated:&amp;nbsp;DateTimeField(auto)" style="text;strokeColor=none;fillColor=none;align=left;verticalAlign=top;spacingLeft=4;spacingRight=4;overflow=hidden;rotatable=0;points=[[0,0.5],[1,0.5]];portConstraint=eastwest;whiteSpace=wrap;html=1;" parent="iAI7xGNEMs5AbcpsR_C5-379" vertex="1">
          <mxGeometry y="156" width="240" height="26" as="geometry" />
        </mxCell>
        <mxCell id="iAI7xGNEMs5AbcpsR_C5-384" value="payment_date: DateTimeField" style="text;strokeColor=none;fillColor=none;align=left;verticalAlign=top;spacingLeft=4;spacingRight=4;overflow=hidden;rotatable=0;points=[[0,0.5],[1,0.5]];portConstraint=eastwest;whiteSpace=wrap;html=1;" parent="iAI7xGNEMs5AbcpsR_C5-379" vertex="1">
          <mxGeometry y="182" width="240" height="26" as="geometry" />
        </mxCell>
        <mxCell id="iAI7xGNEMs5AbcpsR_C5-385" value="delivery_address: CharField" style="text;strokeColor=none;fillColor=none;align=left;verticalAlign=top;spacingLeft=4;spacingRight=4;overflow=hidden;rotatable=0;points=[[0,0.5],[1,0.5]];portConstraint=eastwest;whiteSpace=wrap;html=1;" parent="iAI7xGNEMs5AbcpsR_C5-379" vertex="1">
          <mxGeometry y="208" width="240" height="26" as="geometry" />
        </mxCell>
        <mxCell id="u7lM2KXQP_NcvlQFw7vr-4" style="edgeStyle=orthogonalEdgeStyle;rounded=0;orthogonalLoop=1;jettySize=auto;html=1;entryX=1;entryY=0.5;entryDx=0;entryDy=0;curved=1;" parent="1" source="iAI7xGNEMs5AbcpsR_C5-401" target="iAI7xGNEMs5AbcpsR_C5-319" edge="1">
          <mxGeometry relative="1" as="geometry" />
        </mxCell>
        <mxCell id="iAI7xGNEMs5AbcpsR_C5-401" value="HistorySearch" style="swimlane;fontStyle=0;childLayout=stackLayout;horizontal=1;startSize=26;fillColor=none;horizontalStack=0;resizeParent=1;resizeParentMax=0;resizeLast=0;collapsible=1;marginBottom=0;whiteSpace=wrap;html=1;" parent="1" vertex="1">
          <mxGeometry x="-1720" y="-2560" width="240" height="104" as="geometry" />
        </mxCell>
        <mxCell id="iAI7xGNEMs5AbcpsR_C5-402" value="id:&amp;nbsp;BigAutoField(PK)" style="text;strokeColor=none;fillColor=none;align=left;verticalAlign=top;spacingLeft=4;spacingRight=4;overflow=hidden;rotatable=0;points=[[0,0.5],[1,0.5]];portConstraint=eastwest;whiteSpace=wrap;html=1;" parent="iAI7xGNEMs5AbcpsR_C5-401" vertex="1">
          <mxGeometry y="26" width="240" height="26" as="geometry" />
        </mxCell>
        <mxCell id="iAI7xGNEMs5AbcpsR_C5-413" value="user: ForeignKey(UserProfile)" style="text;strokeColor=none;fillColor=none;align=left;verticalAlign=top;spacingLeft=4;spacingRight=4;overflow=hidden;rotatable=0;points=[[0,0.5],[1,0.5]];portConstraint=eastwest;whiteSpace=wrap;html=1;" parent="iAI7xGNEMs5AbcpsR_C5-401" vertex="1">
          <mxGeometry y="52" width="240" height="26" as="geometry" />
        </mxCell>
        <mxCell id="iAI7xGNEMs5AbcpsR_C5-414" value="product: ManyToManyField(Product)" style="text;strokeColor=none;fillColor=none;align=left;verticalAlign=top;spacingLeft=4;spacingRight=4;overflow=hidden;rotatable=0;points=[[0,0.5],[1,0.5]];portConstraint=eastwest;whiteSpace=wrap;html=1;" parent="iAI7xGNEMs5AbcpsR_C5-401" vertex="1">
          <mxGeometry y="78" width="240" height="26" as="geometry" />
        </mxCell>
        <mxCell id="u7lM2KXQP_NcvlQFw7vr-47" style="edgeStyle=orthogonalEdgeStyle;rounded=0;orthogonalLoop=1;jettySize=auto;html=1;entryX=0;entryY=0.5;entryDx=0;entryDy=0;curved=1;" parent="1" source="iAI7xGNEMs5AbcpsR_C5-388" target="iAI7xGNEMs5AbcpsR_C5-387" edge="1">
          <mxGeometry relative="1" as="geometry">
            <mxPoint x="-2070" y="-2460" as="targetPoint" />
          </mxGeometry>
        </mxCell>
        <mxCell id="u7lM2KXQP_NcvlQFw7vr-48" value="" style="edgeStyle=orthogonalEdgeStyle;rounded=0;orthogonalLoop=1;jettySize=auto;html=1;curved=1;entryX=1;entryY=0.5;entryDx=0;entryDy=0;" parent="1" source="iAI7xGNEMs5AbcpsR_C5-388" target="iAI7xGNEMs5AbcpsR_C5-333" edge="1">
          <mxGeometry relative="1" as="geometry" />
        </mxCell>
        <mxCell id="iAI7xGNEMs5AbcpsR_C5-388" value="OrderOffer" style="swimlane;fontStyle=0;childLayout=stackLayout;horizontal=1;startSize=26;fillColor=none;horizontalStack=0;resizeParent=1;resizeParentMax=0;resizeLast=0;collapsible=1;marginBottom=0;whiteSpace=wrap;html=1;" parent="1" vertex="1">
          <mxGeometry x="-2360" y="-2560" width="240" height="182" as="geometry" />
        </mxCell>
        <mxCell id="iAI7xGNEMs5AbcpsR_C5-389" value="id:&amp;nbsp;BigAutoField(PK)" style="text;strokeColor=none;fillColor=none;align=left;verticalAlign=top;spacingLeft=4;spacingRight=4;overflow=hidden;rotatable=0;points=[[0,0.5],[1,0.5]];portConstraint=eastwest;whiteSpace=wrap;html=1;" parent="iAI7xGNEMs5AbcpsR_C5-388" vertex="1">
          <mxGeometry y="26" width="240" height="26" as="geometry" />
        </mxCell>
        <mxCell id="iAI7xGNEMs5AbcpsR_C5-391" value="product: ForeignKey(Product)" style="text;strokeColor=none;fillColor=none;align=left;verticalAlign=top;spacingLeft=4;spacingRight=4;overflow=hidden;rotatable=0;points=[[0,0.5],[1,0.5]];portConstraint=eastwest;whiteSpace=wrap;html=1;" parent="iAI7xGNEMs5AbcpsR_C5-388" vertex="1">
          <mxGeometry y="52" width="240" height="26" as="geometry" />
        </mxCell>
        <mxCell id="iAI7xGNEMs5AbcpsR_C5-397" value="order: ForeignKey(Order)" style="text;strokeColor=none;fillColor=none;align=left;verticalAlign=top;spacingLeft=4;spacingRight=4;overflow=hidden;rotatable=0;points=[[0,0.5],[1,0.5]];portConstraint=eastwest;whiteSpace=wrap;html=1;" parent="iAI7xGNEMs5AbcpsR_C5-388" vertex="1">
          <mxGeometry y="78" width="240" height="26" as="geometry" />
        </mxCell>
        <mxCell id="iAI7xGNEMs5AbcpsR_C5-398" value="shop: ForeignKey(Shop)" style="text;strokeColor=none;fillColor=none;align=left;verticalAlign=top;spacingLeft=4;spacingRight=4;overflow=hidden;rotatable=0;points=[[0,0.5],[1,0.5]];portConstraint=eastwest;whiteSpace=wrap;html=1;" parent="iAI7xGNEMs5AbcpsR_C5-388" vertex="1">
          <mxGeometry y="104" width="240" height="26" as="geometry" />
        </mxCell>
        <mxCell id="iAI7xGNEMs5AbcpsR_C5-399" value="price: DecimalField" style="text;strokeColor=none;fillColor=none;align=left;verticalAlign=top;spacingLeft=4;spacingRight=4;overflow=hidden;rotatable=0;points=[[0,0.5],[1,0.5]];portConstraint=eastwest;whiteSpace=wrap;html=1;" parent="iAI7xGNEMs5AbcpsR_C5-388" vertex="1">
          <mxGeometry y="130" width="240" height="26" as="geometry" />
        </mxCell>
        <mxCell id="iAI7xGNEMs5AbcpsR_C5-400" value="quantity: SmallIntergerField" style="text;strokeColor=none;fillColor=none;align=left;verticalAlign=top;spacingLeft=4;spacingRight=4;overflow=hidden;rotatable=0;points=[[0,0.5],[1,0.5]];portConstraint=eastwest;whiteSpace=wrap;html=1;" parent="iAI7xGNEMs5AbcpsR_C5-388" vertex="1">
          <mxGeometry y="156" width="240" height="26" as="geometry" />
        </mxCell>
        <mxCell id="u7lM2KXQP_NcvlQFw7vr-74" value="" style="endArrow=block;startArrow=block;endFill=1;startFill=1;html=1;rounded=0;edgeStyle=orthogonalEdgeStyle;curved=1;entryX=1;entryY=0.5;entryDx=0;entryDy=0;exitX=0.446;exitY=1.115;exitDx=0;exitDy=0;exitPerimeter=0;" parent="1" source="iAI7xGNEMs5AbcpsR_C5-414" target="iAI7xGNEMs5AbcpsR_C5-339" edge="1">
          <mxGeometry width="160" relative="1" as="geometry">
            <mxPoint x="-1690" y="-2450" as="sourcePoint" />
            <mxPoint x="-2230" y="-2400" as="targetPoint" />
            <Array as="points">
              <mxPoint x="-1613" y="-2360" />
              <mxPoint x="-1800" y="-2360" />
              <mxPoint x="-1800" y="-2155" />
            </Array>
          </mxGeometry>
        </mxCell>
      </root>
    </mxGraphModel>
  </diagram>
</mxfile>
